<svg width="60" height="60" viewBox="0 0 60 60" fill="none" xmlns="http://www.w3.org/2000/svg">
<path d="M13.7333 0.666664L13.0667 1.30666V30V58.6933L13.7333 59.3333C14.3733 60 14.4533 60 18.8 60C22.8533 60 23.2533 59.9467 23.7333 59.4667C24.24 58.96 24.2667 58.5867 24.2667 44.7467C24.2667 36.88 24.3733 30.6667 24.5067 30.8C24.6133 30.96 27.28 37.4667 30.4 45.28C34.1333 54.6133 36.2133 59.5733 36.5333 59.7333C36.8 59.8933 38.96 60 41.3333 60C45.5467 60 45.6267 59.9733 46.2667 59.3333L46.9333 58.6933V30V1.30666L46.2667 0.666664C45.6267 0 45.5467 0 41.2 0C37.1467 0 36.7467 0.0533333 36.2667 0.533333C35.76 1.04 35.7333 1.41333 35.7333 15.2533C35.7333 23.12 35.6267 29.3333 35.4933 29.2C35.3867 29.04 32.72 22.5333 29.6 14.72C25.8667 5.38667 23.7867 0.426666 23.4667 0.266666C23.2 0.106667 21.04 0 18.6667 0C14.4533 0 14.3733 0.0266647 13.7333 0.666664ZM31.5467 29.52C37.2 43.7333 41.92 55.5467 42.0267 55.7867C42.16 56.2133 42 56.2667 40.48 56.2667H38.7733L28.4533 30.4533C22.8 16.2667 18.08 4.45333 17.9733 4.18666C17.84 3.78667 18 3.73333 19.52 3.73333H21.2267L31.5467 29.52ZM43.2 26.0533C43.2 38.32 43.1467 48.2933 43.0933 48.24C43.04 48.1867 42.1867 46.16 41.2267 43.7333L39.4667 39.36V21.5467V3.73333H41.3333H43.2V26.0533ZM18.7733 16.2667L20.5333 20.64V38.4533V56.2667H18.6667H16.8V33.9467C16.8 21.68 16.8533 11.7067 16.9067 11.76C16.96 11.8133 17.8133 13.84 18.7733 16.2667Z" fill="#DAF0F1"/>
<rect x="0.5" y="0.5" width="59" height="59" stroke="#213342"/>
</svg>
