<svg width="283" height="291" viewBox="0 0 283 291" fill="none" xmlns="http://www.w3.org/2000/svg">
<g filter="url(#filter0_f_74_272)">
<ellipse cx="141.5" cy="145.19" rx="71.5" ry="74.9727" fill="#AB403D"/>
</g>
<path d="M119.597 91.1901H118.971C118.37 91.1901 118.345 91.2405 118.345 93.029C118.345 94.7167 118.295 94.9182 117.645 95.548L116.944 96.2281H92.6133C79.2215 96.2281 68.2829 96.2785 68.2829 96.3541C68.2829 96.4296 71.7121 100.561 75.9174 105.548C80.1227 110.511 83.5519 114.667 83.5519 114.743C83.5519 114.818 83.1765 114.869 82.7509 114.869C81.975 114.869 81.5244 114.365 74.6658 105.7C70.6859 100.636 67.2816 96.4548 67.1064 96.3793C66.9562 96.3289 64.8285 98.5456 62.3755 101.342C51.2866 113.987 48.383 117.186 47.8073 117.413C47.2315 117.64 47.2566 117.715 48.9837 118.899L50.761 120.184V128.9L48.2578 130.058V146.482L45.1289 151.52L42 156.533V194.218H242V166.634L238.17 164.695C233.99 162.604 230.26 161.47 227.532 161.47C225.805 161.47 222.526 162.503 221.049 163.511C220.473 163.914 219.947 164.241 219.872 164.241C219.797 164.241 219.697 156.533 219.672 147.112L219.597 129.983L218.846 129.353C218.195 128.824 217.82 128.749 216.293 128.723H214.466V129.555C214.466 130.033 214.691 131.066 214.966 131.872C215.242 132.678 215.467 133.434 215.467 133.56C215.467 133.661 215.242 133.761 214.966 133.761C214.491 133.761 214.466 133.938 214.466 137.54V141.318H213.139C211.036 141.318 210.986 141.218 210.911 135.877L210.836 131.368L209.034 131.293C207.432 131.217 207.207 131.167 207.207 130.739C207.207 130.31 207.432 130.26 209.034 130.184L210.836 130.109L210.911 128.824C210.961 127.917 211.136 127.388 211.462 127.086C211.887 126.708 211.962 126.305 211.962 124.567V122.527L209.71 121.418L209.66 116.96L209.584 112.476L207.832 112.4C206.255 112.325 205.73 112.123 205.705 111.519C205.705 111.418 206.606 111.342 207.682 111.342C209.584 111.342 209.685 111.317 210.31 110.561L210.961 109.78V97.5632L210.335 96.9838C209.81 96.48 209.71 96.1525 209.71 94.9686C209.71 93.3564 210.11 92.7771 211.362 92.5504C211.762 92.4748 212.413 92.1221 212.788 91.7443C213.665 90.8878 213.615 90.0817 212.663 89.981C212.113 89.9054 211.962 89.7543 211.962 89.2757C211.962 88.6963 211.912 88.6711 210.085 88.6711C208.258 88.6711 208.208 88.6963 208.208 89.3008C208.208 89.8046 208.083 89.9306 207.582 89.9306C207.081 89.9306 206.956 89.8046 206.956 89.3008C206.956 88.6459 206.931 88.6459 205.154 88.7215C203.477 88.797 203.327 88.8474 203.252 89.3512C203.176 89.855 203.026 89.9306 201.925 89.9306C200.773 89.9306 200.698 89.8802 200.698 89.3008C200.698 88.7215 200.623 88.6711 199.447 88.6711H198.195V89.9306C198.195 91.1145 198.145 91.1901 197.569 91.1901C197.094 91.1901 196.944 91.0641 196.944 90.6359C196.944 90.1573 196.768 90.2329 195.692 91.316L194.441 92.5504V102.526H193.239C192.213 102.526 191.737 102.727 189.76 104.037C188.508 104.868 187.407 105.649 187.307 105.8C187.207 105.977 182.451 106.052 172.763 106.052L158.395 106.027L158.896 105.045C159.497 103.836 159.397 103.911 162.901 102.5L165.78 101.342L165.68 94.4396C165.63 90.6359 165.554 87.5123 165.529 87.462C165.479 87.4116 164.753 87.5627 163.902 87.7894C161.8 88.3436 161.574 88.1673 163.101 87.2101L164.403 86.404V80.7362C164.403 75.144 164.403 75.0181 165.029 73.7837C165.805 72.2723 165.755 72.2471 162.876 72.3479L160.773 72.4235L159.547 74.2372L158.295 76.076L158.846 76.6554C159.372 77.2348 159.397 77.4363 159.397 83.0789C159.397 88.8222 159.397 88.9734 158.771 90.1825C158.195 91.2909 158.145 91.7191 158.145 94.4648V97.4876H148.183L146.406 95.0946C145.429 93.7847 144.528 92.7015 144.428 92.7015C144.328 92.7015 143.477 93.7847 142.526 95.0946L140.773 97.4876L140.173 96.9083C139.847 96.606 137.069 93.5328 134.04 90.1069L128.483 83.8598L128.233 66.126L123.927 66.0504L119.597 66V91.1901ZM126.981 104.919L125.68 104.994L124.353 105.07V98.7219L125.68 98.7975L126.981 98.8731V104.919ZM130.736 104.919L129.434 104.994L128.108 105.07V98.7219L129.434 98.7975L130.736 98.8731V104.919ZM143.327 103.836L143.252 106.178H140.748L140.673 105.07C140.598 104.037 140.673 103.886 141.775 102.752C142.451 102.072 143.076 101.518 143.176 101.518C143.302 101.518 143.352 102.576 143.327 103.836ZM145.98 102.778C147.056 103.936 147.156 104.138 147.081 105.12L147.006 106.178L145.705 106.254L144.378 106.329V103.936C144.378 102.601 144.478 101.518 144.603 101.518C144.703 101.518 145.329 102.097 145.98 102.778ZM142 111.216H139.497L139.347 108.798L142 108.949V111.216ZM144.378 110.083C144.378 111.267 144.328 111.342 143.752 111.342C143.176 111.342 143.126 111.267 143.126 110.083C143.126 108.899 143.176 108.823 143.752 108.823C144.328 108.823 144.378 108.899 144.378 110.083ZM148.133 111.342H145.63V108.823H148.133V111.342ZM204.453 111.846C204.453 112.299 204.278 112.35 202.776 112.35C201.149 112.35 201.124 112.35 201.574 111.846C201.9 111.468 202.35 111.342 203.252 111.342C204.278 111.342 204.453 111.418 204.453 111.846ZM142 112.854C142.075 112.98 142.075 114.97 141.975 117.262L141.8 121.443L139.497 121.292L139.422 116.934L139.372 112.602H140.598C141.274 112.602 141.925 112.702 142 112.854ZM144.378 117.01C144.378 121.242 144.353 121.418 143.877 121.418C143.477 121.418 143.377 121.242 143.377 120.461C143.352 119.957 143.302 117.967 143.227 116.053L143.076 112.602H144.378V117.01ZM148.133 116.33L147.131 116.859C146.581 117.161 146.03 117.388 145.905 117.388C145.78 117.388 145.68 116.305 145.655 114.995L145.605 112.602H148.133V116.33ZM203.202 120.159H201.95V113.861H203.202V120.159ZM208.208 120.159H206.956V113.861H208.208V120.159ZM58.2703 122.678H55.7672V115.121H58.2703V122.678ZM63.2766 122.678H60.7735V115.121H63.2766V122.678ZM68.2829 122.678H65.7797V115.121H68.2829V122.678ZM73.2891 122.678H70.786V115.121H73.2891V122.678ZM78.1702 122.552L76.9937 122.627L75.7922 122.703V115.121H78.3204L78.1702 122.552ZM103.076 116.506V117.64H102.075C101.524 117.64 101.074 117.564 101.074 117.463C101.074 117.312 102.851 115.398 103.026 115.373C103.051 115.373 103.076 115.876 103.076 116.506ZM107.832 117.438C107.832 117.539 107.382 117.64 106.831 117.64H105.83V115.272L106.831 116.254C107.382 116.783 107.832 117.337 107.832 117.438ZM161.9 116.506V117.64H160.899C160.348 117.64 159.897 117.564 159.897 117.463C159.897 117.287 161.675 115.373 161.825 115.373C161.875 115.373 161.9 115.876 161.9 116.506ZM166.656 117.514C166.656 117.589 166.205 117.64 165.655 117.64H164.653V115.448L165.655 116.405C166.205 116.934 166.656 117.438 166.656 117.514ZM126.981 121.292H124.478L124.328 118.924L123.151 118.849C122.025 118.773 121.975 118.748 121.9 117.942C121.75 116.431 121.85 116.38 124.603 116.38H127.131L126.981 121.292ZM190.686 123.685H188.433V116.38H190.686V123.685ZM195.692 123.685H193.439V116.38H195.692V123.685ZM110.861 118.471C111.662 119.025 111.712 119.151 111.662 120.31C111.612 120.99 111.161 123.182 110.611 125.197L109.635 128.849L109.61 123.358C109.584 120.36 109.685 117.892 109.81 117.892C109.91 117.892 110.385 118.144 110.861 118.471ZM159.347 123.937L159.272 129.101L158.22 125.297C156.944 120.738 156.869 119.605 157.82 118.597C158.471 117.917 158.521 117.892 158.946 118.345C159.372 118.748 159.397 119.252 159.347 123.937ZM103.277 121.972C103.202 124.97 103.176 125.071 102.651 125.146C102.075 125.222 102.075 125.197 102.075 122.073V118.899H103.352L103.277 121.972ZM106.956 122.048C106.956 124.995 106.931 125.071 106.406 125.146C105.83 125.222 105.83 125.197 105.83 122.048C105.83 118.899 105.83 118.874 106.406 118.95C106.931 119.025 106.956 119.101 106.956 122.048ZM161.9 122.073C161.9 125.197 161.9 125.222 161.349 125.146C160.799 125.071 160.773 124.97 160.698 121.972L160.623 118.899H161.9V122.073ZM165.655 122.073C165.655 125.197 165.655 125.222 165.104 125.146C164.553 125.071 164.528 124.97 164.453 121.972L164.378 118.899H165.655V122.073ZM171.612 120.335L172.363 121.544L172.463 126.129C172.513 128.648 172.463 130.638 172.363 130.537C172.288 130.436 171.387 128.874 170.411 127.086C169.084 124.693 168.558 123.484 168.458 122.602C168.358 121.443 168.383 121.343 169.434 120.259C170.035 119.655 170.586 119.151 170.686 119.151C170.786 119.151 171.212 119.68 171.612 120.335ZM100.048 121.393L100.648 122.501L100.023 124.441C99.5469 125.877 98.9462 126.96 97.6696 128.673L95.9424 131.016L95.7922 121.292L96.4681 120.713C96.9937 120.259 97.3692 120.159 98.2954 120.209C99.3717 120.285 99.4718 120.36 100.048 121.393ZM155.642 121.292C155.642 121.343 156.218 123.66 156.894 126.431C157.594 129.202 158.145 131.696 158.145 131.973C158.145 132.451 157.995 132.502 156.393 132.502H154.641V127.136C154.641 123.307 154.716 121.695 154.941 121.469C155.242 121.166 155.642 121.066 155.642 121.292ZM113.089 126.96V132.502H111.712C110.961 132.502 110.335 132.426 110.335 132.3C110.31 132.048 112.939 121.418 113.039 121.418C113.064 121.418 113.089 123.912 113.089 126.96ZM123.101 131.922C123.101 132.502 123.101 132.502 118.846 132.502H114.591V122.804L118.846 127.086C121.85 130.109 123.101 131.519 123.101 131.922ZM94.3154 127.842V132.502H90.6859C87.1815 132.502 87.0563 132.477 87.0563 131.973C87.0563 131.671 88.5081 129.756 90.5857 127.313C92.5382 125.046 94.1652 123.182 94.2153 123.182C94.2653 123.182 94.3154 125.272 94.3154 127.842ZM178.395 127.338C180.423 129.706 181.925 131.696 181.925 131.998C181.925 132.477 181.775 132.502 178.295 132.502H174.666V127.842C174.666 125.272 174.716 123.182 174.766 123.182C174.816 123.182 176.443 125.046 178.395 127.338ZM153.139 128.094V132.502H145.88V131.922C145.88 131.494 146.956 130.159 149.409 127.514C151.362 125.398 152.989 123.685 153.039 123.685C153.089 123.685 153.139 125.675 153.139 128.094ZM80.373 126.381L81.3242 128.799L80.7735 129.378L80.2228 129.983H66.2303C58.5457 129.983 52.2628 129.932 52.2628 129.857C52.2628 129.706 53.6395 126.154 54.1902 124.869L54.5907 123.937H79.4218L80.373 126.381ZM169.635 129.252C170.486 130.865 171.161 132.275 171.161 132.351C171.161 132.426 170.26 132.502 169.159 132.502H167.156V128.925C167.156 125.373 167.156 125.348 167.632 125.826C167.907 126.104 168.809 127.64 169.635 129.252ZM103.076 129.479C103.076 132.326 103.051 132.502 102.576 132.502C102.1 132.502 102.075 132.326 102.075 129.479C102.075 126.633 102.1 126.456 102.576 126.456C103.051 126.456 103.076 126.633 103.076 129.479ZM106.831 129.479C106.831 132.326 106.806 132.502 106.33 132.502C105.855 132.502 105.83 132.326 105.83 129.479C105.83 126.633 105.855 126.456 106.33 126.456C106.806 126.456 106.831 126.633 106.831 129.479ZM161.9 129.479C161.9 132.326 161.875 132.502 161.399 132.502C160.924 132.502 160.899 132.326 160.899 129.479C160.899 126.633 160.924 126.456 161.399 126.456C161.875 126.456 161.9 126.633 161.9 129.479ZM165.655 129.479C165.655 132.326 165.63 132.502 165.154 132.502C164.678 132.502 164.653 132.326 164.653 129.479C164.653 126.633 164.678 126.456 165.154 126.456C165.63 126.456 165.655 126.633 165.655 129.479ZM100.048 131.897C99.622 132.351 99.2215 132.502 98.3705 132.502C97.7697 132.502 97.3191 132.401 97.3692 132.3C97.4193 132.174 98.1202 130.94 98.9462 129.529L100.448 126.96L100.523 129.152C100.598 131.091 100.548 131.368 100.048 131.897ZM204.453 130.739C204.453 131.192 204.278 131.242 202.776 131.242C201.149 131.242 201.124 131.242 201.574 130.739C201.9 130.361 202.35 130.235 203.252 130.235C204.278 130.235 204.453 130.31 204.453 130.739ZM140.198 136.835C143.101 140.235 143.126 140.26 143.126 141.545C143.126 142.754 143.176 142.83 143.752 142.83H144.378V155.702L143.852 155.4C143.552 155.249 142.476 154.568 141.424 153.888L139.547 152.654H129.484L127.156 154.165C125.88 154.997 124.804 155.677 124.728 155.677C124.653 155.677 124.603 152.78 124.603 149.253V142.83H125.229C125.805 142.83 125.855 142.754 125.855 141.545C125.855 140.059 125.479 140.588 130.811 134.542L134.466 130.411L135.842 131.897C136.618 132.729 138.571 134.945 140.198 136.835ZM203.151 135.852L203.227 139.051H201.95V135.953C201.95 134.24 202.025 132.754 202.125 132.653C202.225 132.552 202.476 132.527 202.701 132.552C203.001 132.628 203.076 133.182 203.151 135.852ZM208.208 135.802C208.208 139.076 208.208 139.076 207.657 139.001C207.106 138.925 207.081 138.825 207.006 136.054C206.931 132.804 206.981 132.502 207.707 132.502C208.183 132.502 208.208 132.653 208.208 135.802ZM122.976 134.693C122.726 135.096 122.375 135.625 122.2 135.903C121.9 136.356 122 136.633 123.126 138.346L124.378 140.26L123.752 141.545L123.101 142.805V160.211H115.592V171.975L114.39 171.748C113.339 171.521 113.014 171.572 112.138 172.025C110.861 172.68 110.536 172.68 109.96 172.05C109.584 171.622 109.184 171.547 107.682 171.547C106.105 171.547 105.78 171.471 105.104 170.917L104.353 170.262L103.352 170.791C102.1 171.421 101.875 171.421 101.199 170.791C100.698 170.312 100.673 170.312 98.796 170.892L96.9186 171.471L95.7922 170.892C95.0663 170.514 94.2403 170.312 93.3892 170.287C92.1877 170.287 92.0626 170.237 92.0626 169.708C92.0626 169.33 92.438 168.902 93.3392 168.272L94.6158 167.415L93.3892 166.332C92.6133 165.652 91.9374 165.274 91.5119 165.249C90.9362 165.249 90.811 165.148 90.811 164.619C90.811 164.267 90.2353 162.856 89.5594 161.47L88.3079 158.951H85.6796L83.7522 161.521C82.6508 162.982 81.7998 164.367 81.7998 164.67C81.7998 165.098 81.6496 165.249 81.2491 165.249C80.9487 165.249 80.4481 165.501 80.1227 165.803L79.5469 166.332L78.9712 165.803C78.6458 165.501 78.0951 165.249 77.7197 165.249C77.169 165.249 77.0438 165.123 77.0438 164.619C77.0438 164.267 76.4681 162.856 75.7922 161.47L74.5407 158.951H71.8874L69.9599 161.571C68.9086 163.007 68.0325 164.418 68.0325 164.72C68.0325 165.098 67.8824 165.249 67.4318 165.249C67.1064 165.249 66.3304 165.551 65.6796 165.904L64.5282 166.559V156.684H80.7985V153.611C80.7985 151.923 80.7234 150.639 80.6233 150.739C80.4981 150.84 80.1977 151.848 79.9224 152.981L79.4218 155.047L69.6095 155.123C64.2028 155.148 59.7722 155.148 59.7722 155.097C59.7722 155.047 61.3992 152.301 63.3767 148.976L66.9812 142.956L73.4643 142.83C77.0188 142.754 80.1227 142.603 80.373 142.477C80.5982 142.376 80.7985 142.124 80.7985 141.923C80.7985 141.721 81.0488 141.57 81.4243 141.57H82.0501V136.432L84.403 134.013H123.402L122.976 134.693ZM186.931 136.507V169.254L186.305 169.733L185.68 170.237L181.424 168.373C177.845 166.811 176.919 166.508 175.792 166.508C174.491 166.508 174.39 166.559 173.189 167.768L171.937 169.028H167.106L165.855 170.161C165.154 170.791 164.453 171.295 164.278 171.295C164.103 171.295 163.227 171.068 162.3 170.791L160.673 170.262L159.472 170.892L158.27 171.496L157.144 170.892C156.243 170.438 155.617 170.312 154.09 170.287H152.138V160.211H145.88V142.83L145.204 141.47L144.553 140.109L145.204 138.296L145.88 136.507L145.254 135.424C144.904 134.819 144.628 134.265 144.628 134.19C144.628 134.089 153.615 134.013 164.628 134.013H184.603L186.931 136.507ZM65.2791 168.902C65.4543 169.103 65.8548 169.279 66.1802 169.279C66.6058 169.279 66.781 169.431 66.781 169.783C66.781 170.136 66.6058 170.287 66.2303 170.287C65.9299 170.287 65.4293 170.539 65.1039 170.841L64.5282 171.37V169.96C64.5282 168.499 64.7284 168.221 65.2791 168.902Z" fill="#1F3335"/>
<path d="M132.488 138.799C131.862 140.009 131.862 140.134 131.862 145.853C131.862 149.027 131.937 151.646 132.063 151.646C132.163 151.621 132.738 151.369 133.364 151.042L134.491 150.437L135.667 151.042C136.318 151.369 136.919 151.646 136.994 151.646C137.069 151.646 137.119 149.027 137.119 145.853C137.119 140.134 137.119 140.009 136.493 138.799L135.867 137.54H133.114L132.488 138.799Z" fill="#1F3335"/>
<path d="M93.189 145.424C93.1139 145.575 93.0888 149.858 93.1139 154.921L93.189 164.115H113.214L113.289 154.594L113.339 145.097H103.327C95.5169 145.097 93.2641 145.172 93.189 145.424ZM101.374 148.296L102.075 148.976V155.198C102.075 161.093 102.05 161.445 101.549 162.075C101.074 162.68 100.899 162.73 98.9962 162.73C97.2691 162.73 96.8936 162.654 96.393 162.176C95.8173 161.647 95.8173 161.596 95.8173 155.248V148.85L96.443 148.246C96.9687 147.691 97.2691 147.616 98.846 147.616C100.473 147.616 100.748 147.691 101.374 148.296ZM110.06 148.271L110.836 148.926V155.173C110.836 161.093 110.811 161.445 110.31 162.075C109.835 162.68 109.66 162.73 107.757 162.73C105.905 162.73 105.68 162.68 105.029 162.05L104.328 161.37V149.077L105.054 148.346C105.73 147.666 105.93 147.616 107.532 147.616C109.059 147.616 109.409 147.691 110.06 148.271Z" fill="#1F3335"/>
<path d="M154.441 155.223L154.516 164.115H174.541V146.482L164.453 146.407L154.391 146.356L154.441 155.223ZM162.576 149.48L163.277 150.085L163.427 161.143L162.776 161.949C162.125 162.705 162.05 162.73 160.023 162.73C158.07 162.73 157.895 162.68 157.419 162.075C156.919 161.445 156.894 161.093 156.894 155.803V150.185L157.67 149.53C158.32 148.976 158.671 148.875 160.148 148.875C161.6 148.875 161.975 148.976 162.576 149.48ZM171.186 149.404L171.912 149.908V155.752C171.912 161.37 171.887 161.571 171.362 162.151C170.886 162.654 170.586 162.73 168.758 162.73C166.831 162.73 166.656 162.68 166.18 162.075C165.68 161.445 165.655 161.093 165.655 155.853V150.286L166.33 149.581C166.931 148.951 167.156 148.875 168.733 148.875C170.085 148.875 170.611 149.001 171.186 149.404Z" fill="#1F3335"/>
<path d="M58.5207 76.2776C58.5207 76.4035 58.7459 76.7058 59.0213 76.9577C59.4969 77.3859 59.5219 77.7386 59.5219 86.8322V96.2281H58.3955C57.1439 96.2281 57.0188 96.4296 57.7697 97.1098C58.2203 97.5128 58.2703 97.8907 58.2703 100.939C58.2703 102.778 58.3454 104.289 58.4706 104.264C58.5707 104.264 59.6971 103.029 60.9737 101.518C63.2766 98.8227 63.2766 98.7975 63.2766 97.4373C63.2766 96.3037 63.1765 95.951 62.6508 95.4724L62.025 94.8931V80.1065H62.6508C63.0012 80.1065 64.0526 80.6103 65.0038 81.2148C65.9549 81.8446 66.806 82.2728 66.8811 82.1972C66.9562 82.0965 67.0313 81.5675 67.0313 81.0133C67.0313 80.0561 66.8811 79.8294 65.0788 78.0157L63.1514 76.0761H60.8235C59.572 76.0761 58.5207 76.1768 58.5207 76.2776Z" fill="#1F3335"/>
<path d="M213.214 98.7471C213.214 101.09 213.314 102.526 213.464 102.526C213.615 102.526 213.715 104.39 213.715 107.589C213.715 110.586 213.815 112.828 213.965 113.131C214.19 113.534 214.14 113.609 213.589 113.609C212.463 113.609 211.962 113.181 211.962 112.224C211.962 111.443 211.887 111.342 211.337 111.342C210.736 111.342 210.711 111.393 210.711 113.206C210.711 114.818 210.786 115.121 211.337 115.725C211.912 116.355 211.962 116.582 211.962 118.899V121.418L213.214 122.048C214.466 122.678 214.466 122.678 214.466 123.937C214.466 124.643 214.591 125.197 214.716 125.197C214.866 125.197 214.966 124.416 214.966 123.358C214.966 121.343 214.741 121.796 218.045 117.161L219.472 115.146V109.453C219.472 103.861 219.472 103.785 219.997 103.785C220.698 103.785 220.648 103.634 217.97 99.654C216.618 97.5884 215.717 95.9762 215.717 95.5984C215.717 95.019 215.642 94.9686 214.466 94.9686H213.214V98.7471Z" fill="#1F3335"/>
<path d="M211.962 140.336L212.663 140.26L213.339 140.185L213.414 137.414C213.489 134.114 213.414 133.711 212.588 133.157L211.962 132.754V140.336Z" fill="#1F3335"/>
<defs>
<filter id="filter0_f_74_272" x="0" y="0.21759" width="283" height="289.945" filterUnits="userSpaceOnUse" color-interpolation-filters="sRGB">
<feFlood flood-opacity="0" result="BackgroundImageFix"/>
<feBlend mode="normal" in="SourceGraphic" in2="BackgroundImageFix" result="shape"/>
<feGaussianBlur stdDeviation="35" result="effect1_foregroundBlur_74_272"/>
</filter>
</defs>
</svg>
