<svg width="343" height="350" viewBox="0 0 343 350" fill="none" xmlns="http://www.w3.org/2000/svg">
<g filter="url(#filter0_f_68_270)">
<ellipse cx="171.144" cy="174.795" rx="71.1443" ry="74.7946" fill="#DAF0F1"/>
</g>
<path d="M178.206 147.217H177.583C176.986 147.217 176.961 147.268 176.961 149.052C176.961 150.735 176.911 150.937 176.263 151.565L175.566 152.243H151.356C138.031 152.243 127.147 152.294 127.147 152.369C127.147 152.444 130.559 156.566 134.744 161.541C138.928 166.492 142.34 170.639 142.34 170.714C142.34 170.789 141.967 170.84 141.543 170.84C140.771 170.84 140.323 170.337 133.498 161.692C129.538 156.641 126.151 152.469 125.976 152.394C125.827 152.344 123.71 154.555 121.269 157.345C110.235 169.96 107.346 173.152 106.773 173.378C106.201 173.604 106.225 173.679 107.944 174.861L109.712 176.142V184.837L107.222 185.993V202.378L104.108 207.404L100.995 212.405V250H300V222.482L296.189 220.547C292.03 218.462 288.319 217.331 285.604 217.331C283.885 217.331 280.623 218.361 279.153 219.366C278.58 219.768 278.057 220.095 277.982 220.095C277.908 220.095 277.808 212.405 277.783 203.006L277.708 185.918L276.961 185.29C276.314 184.762 275.94 184.686 274.421 184.661H272.603V185.491C272.603 185.968 272.827 186.998 273.101 187.803C273.375 188.607 273.599 189.361 273.599 189.486C273.599 189.587 273.375 189.687 273.101 189.687C272.627 189.687 272.603 189.863 272.603 193.457V197.226H271.283C269.19 197.226 269.141 197.126 269.066 191.798L268.991 187.3L267.198 187.225C265.604 187.149 265.38 187.099 265.38 186.672C265.38 186.245 265.604 186.194 267.198 186.119L268.991 186.043L269.066 184.762C269.116 183.857 269.29 183.329 269.614 183.028C270.037 182.651 270.112 182.249 270.112 180.515V178.479L267.87 177.374L267.82 172.925L267.746 168.452L266.002 168.377C264.433 168.302 263.91 168.1 263.885 167.497C263.885 167.397 264.782 167.321 265.853 167.321C267.746 167.321 267.845 167.296 268.468 166.542L269.116 165.763V153.575L268.493 152.997C267.97 152.495 267.87 152.168 267.87 150.987C267.87 149.378 268.269 148.8 269.514 148.574C269.913 148.499 270.56 148.147 270.934 147.77C271.806 146.916 271.756 146.112 270.809 146.011C270.261 145.936 270.112 145.785 270.112 145.307C270.112 144.729 270.062 144.704 268.244 144.704C266.426 144.704 266.376 144.729 266.376 145.332C266.376 145.835 266.251 145.961 265.753 145.961C265.255 145.961 265.131 145.835 265.131 145.332C265.131 144.679 265.106 144.679 263.337 144.754C261.669 144.83 261.519 144.88 261.444 145.383C261.37 145.885 261.22 145.961 260.124 145.961C258.979 145.961 258.904 145.91 258.904 145.332C258.904 144.754 258.829 144.704 257.659 144.704H256.413V145.961C256.413 147.142 256.363 147.217 255.79 147.217C255.317 147.217 255.168 147.092 255.168 146.664C255.168 146.187 254.993 146.262 253.923 147.343L252.677 148.574V158.526H251.482C250.46 158.526 249.987 158.727 248.02 160.034C246.774 160.863 245.678 161.642 245.579 161.793C245.479 161.969 240.747 162.044 231.108 162.044L216.811 162.019L217.31 161.039C217.907 159.833 217.808 159.908 221.295 158.501L224.159 157.345L224.059 150.459C224.009 146.664 223.935 143.548 223.91 143.498C223.86 143.448 223.138 143.598 222.291 143.825C220.199 144.378 219.975 144.202 221.494 143.247L222.789 142.442V136.788C222.789 131.209 222.789 131.084 223.412 129.852C224.184 128.344 224.134 128.319 221.27 128.42L219.178 128.495L217.957 130.305L216.712 132.139L217.26 132.717C217.783 133.295 217.808 133.496 217.808 139.125C217.808 144.855 217.808 145.006 217.185 146.212C216.612 147.318 216.562 147.745 216.562 150.484V153.5H206.649L204.881 151.112C203.91 149.806 203.013 148.725 202.913 148.725C202.814 148.725 201.967 149.806 201.021 151.112L199.277 153.5L198.679 152.922C198.356 152.62 195.591 149.554 192.577 146.137L187.048 139.904L186.799 122.213L182.515 122.137L178.206 122.087V147.217ZM185.553 160.913L184.258 160.989L182.938 161.064V154.731L184.258 154.807L185.553 154.882V160.913ZM189.289 160.913L187.994 160.989L186.674 161.064V154.731L187.994 154.807L189.289 154.882V160.913ZM201.818 159.833L201.743 162.17H199.252L199.177 161.064C199.103 160.034 199.177 159.883 200.273 158.752C200.946 158.074 201.568 157.521 201.668 157.521C201.793 157.521 201.842 158.576 201.818 159.833ZM204.458 158.777C205.529 159.933 205.628 160.134 205.554 161.114L205.479 162.17L204.184 162.245L202.864 162.321V159.933C202.864 158.601 202.963 157.521 203.088 157.521C203.187 157.521 203.81 158.099 204.458 158.777ZM200.498 167.196H198.007L197.857 164.783L200.498 164.934V167.196ZM202.864 166.065C202.864 167.246 202.814 167.321 202.241 167.321C201.668 167.321 201.618 167.246 201.618 166.065C201.618 164.884 201.668 164.808 202.241 164.808C202.814 164.808 202.864 164.884 202.864 166.065ZM206.6 167.321H204.109V164.808H206.6V167.321ZM262.64 167.824C262.64 168.276 262.466 168.327 260.971 168.327C259.352 168.327 259.327 168.327 259.776 167.824C260.099 167.447 260.548 167.321 261.444 167.321C262.466 167.321 262.64 167.397 262.64 167.824ZM200.498 168.829C200.572 168.955 200.572 170.94 200.473 173.227L200.298 177.399L198.007 177.248L197.932 172.9L197.882 168.578H199.103C199.775 168.578 200.423 168.678 200.498 168.829ZM202.864 172.976C202.864 177.198 202.839 177.374 202.366 177.374C201.967 177.374 201.867 177.198 201.867 176.419C201.842 175.916 201.793 173.931 201.718 172.021L201.569 168.578H202.864V172.976ZM206.6 172.297L205.603 172.825C205.055 173.127 204.507 173.353 204.383 173.353C204.258 173.353 204.159 172.272 204.134 170.965L204.084 168.578H206.6V172.297ZM261.395 176.117H260.149V169.834H261.395V176.117ZM266.376 176.117H265.131V169.834H266.376V176.117ZM117.184 178.63H114.694V171.091H117.184V178.63ZM122.166 178.63H119.675V171.091H122.166V178.63ZM127.147 178.63H124.656V171.091H127.147V178.63ZM132.128 178.63H129.638V171.091H132.128V178.63ZM136.985 178.504L135.815 178.58L134.619 178.655V171.091H137.135L136.985 178.504ZM161.768 172.473V173.604H160.771C160.223 173.604 159.775 173.529 159.775 173.428C159.775 173.277 161.543 171.367 161.718 171.342C161.743 171.342 161.768 171.845 161.768 172.473ZM166.5 173.403C166.5 173.503 166.051 173.604 165.504 173.604H164.507V171.242L165.504 172.222C166.051 172.75 166.5 173.302 166.5 173.403ZM220.298 172.473V173.604H219.302C218.754 173.604 218.306 173.529 218.306 173.428C218.306 173.252 220.074 171.342 220.224 171.342C220.273 171.342 220.298 171.845 220.298 172.473ZM225.031 173.478C225.031 173.554 224.582 173.604 224.034 173.604H223.038V171.418L224.034 172.373C224.582 172.9 225.031 173.403 225.031 173.478ZM185.553 177.248H183.063L182.913 174.886L181.743 174.81C180.622 174.735 180.572 174.71 180.497 173.906C180.348 172.398 180.448 172.347 183.187 172.347H185.703L185.553 177.248ZM248.941 179.635H246.7V172.347H248.941V179.635ZM253.923 179.635H251.681V172.347H253.923V179.635ZM169.514 174.433C170.311 174.986 170.36 175.112 170.311 176.268C170.261 176.946 169.812 179.133 169.264 181.143L168.293 184.787L168.268 179.309C168.243 176.318 168.343 173.855 168.467 173.855C168.567 173.855 169.04 174.107 169.514 174.433ZM217.758 179.887L217.683 185.038L216.637 181.244C215.367 176.695 215.292 175.564 216.239 174.559C216.886 173.88 216.936 173.855 217.359 174.308C217.783 174.71 217.808 175.212 217.758 179.887ZM161.967 177.926C161.892 180.917 161.867 181.017 161.344 181.093C160.771 181.168 160.771 181.143 160.771 178.027V174.861H162.041L161.967 177.926ZM165.628 178.002C165.628 180.942 165.603 181.017 165.08 181.093C164.507 181.168 164.507 181.143 164.507 178.002C164.507 174.861 164.507 174.835 165.08 174.911C165.603 174.986 165.628 175.062 165.628 178.002ZM220.298 178.027C220.298 181.143 220.298 181.168 219.75 181.093C219.202 181.017 219.178 180.917 219.103 177.926L219.028 174.861H220.298V178.027ZM224.034 178.027C224.034 181.143 224.034 181.168 223.486 181.093C222.938 181.017 222.914 180.917 222.839 177.926L222.764 174.861H224.034V178.027ZM229.962 176.293L230.709 177.499L230.809 182.073C230.859 184.586 230.809 186.571 230.709 186.471C230.635 186.37 229.738 184.812 228.767 183.028C227.447 180.64 226.924 179.434 226.824 178.555C226.724 177.399 226.749 177.298 227.795 176.218C228.393 175.614 228.941 175.112 229.041 175.112C229.14 175.112 229.564 175.64 229.962 176.293ZM158.754 177.348L159.352 178.454L158.729 180.389C158.256 181.822 157.658 182.902 156.388 184.611L154.669 186.948L154.52 177.248L155.192 176.67C155.715 176.218 156.089 176.117 157.01 176.167C158.081 176.243 158.181 176.318 158.754 177.348ZM214.072 177.248C214.072 177.298 214.645 179.61 215.317 182.374C216.014 185.139 216.562 187.627 216.562 187.903C216.562 188.381 216.413 188.431 214.819 188.431H213.075V183.078C213.075 179.258 213.15 177.65 213.374 177.424C213.673 177.122 214.072 177.022 214.072 177.248ZM171.73 182.902V188.431H170.36C169.613 188.431 168.99 188.355 168.99 188.23C168.966 187.979 171.581 177.374 171.68 177.374C171.705 177.374 171.73 179.861 171.73 182.902ZM181.693 187.853C181.693 188.431 181.693 188.431 177.459 188.431H173.225V178.756L177.459 183.028C180.448 186.043 181.693 187.451 181.693 187.853ZM153.05 183.782V188.431H149.439C145.952 188.431 145.827 188.406 145.827 187.903C145.827 187.602 147.272 185.692 149.339 183.254C151.282 180.992 152.901 179.133 152.951 179.133C153 179.133 153.05 181.218 153.05 183.782ZM236.712 183.279C238.729 185.641 240.224 187.627 240.224 187.928C240.224 188.406 240.074 188.431 236.612 188.431H233.001V183.782C233.001 181.218 233.051 179.133 233.1 179.133C233.15 179.133 234.769 180.992 236.712 183.279ZM211.581 184.033V188.431H204.358V187.853C204.358 187.426 205.429 186.094 207.87 183.455C209.813 181.344 211.432 179.635 211.481 179.635C211.531 179.635 211.581 181.621 211.581 184.033ZM139.177 182.324L140.124 184.737L139.576 185.315L139.028 185.918H125.105C117.458 185.918 111.207 185.868 111.207 185.792C111.207 185.641 112.577 182.098 113.125 180.816L113.523 179.887H138.231L139.177 182.324ZM227.995 185.189C228.841 186.797 229.514 188.205 229.514 188.28C229.514 188.355 228.617 188.431 227.521 188.431H225.529V184.862C225.529 181.319 225.529 181.294 226.002 181.771C226.276 182.048 227.173 183.581 227.995 185.189ZM161.768 185.415C161.768 188.255 161.743 188.431 161.269 188.431C160.796 188.431 160.771 188.255 160.771 185.415C160.771 182.576 160.796 182.4 161.269 182.4C161.743 182.4 161.768 182.576 161.768 185.415ZM165.504 185.415C165.504 188.255 165.479 188.431 165.005 188.431C164.532 188.431 164.507 188.255 164.507 185.415C164.507 182.576 164.532 182.4 165.005 182.4C165.479 182.4 165.504 182.576 165.504 185.415ZM220.298 185.415C220.298 188.255 220.273 188.431 219.8 188.431C219.327 188.431 219.302 188.255 219.302 185.415C219.302 182.576 219.327 182.4 219.8 182.4C220.273 182.4 220.298 182.576 220.298 185.415ZM224.034 185.415C224.034 188.255 224.009 188.431 223.536 188.431C223.063 188.431 223.038 188.255 223.038 185.415C223.038 182.576 223.063 182.4 223.536 182.4C224.009 182.4 224.034 182.576 224.034 185.415ZM158.754 187.828C158.33 188.28 157.932 188.431 157.085 188.431C156.487 188.431 156.039 188.33 156.089 188.23C156.139 188.104 156.836 186.873 157.658 185.465L159.152 182.902L159.227 185.089C159.302 187.024 159.252 187.3 158.754 187.828ZM262.64 186.672C262.64 187.124 262.466 187.174 260.971 187.174C259.352 187.174 259.327 187.174 259.776 186.672C260.099 186.295 260.548 186.169 261.444 186.169C262.466 186.169 262.64 186.245 262.64 186.672ZM198.704 192.753C201.593 196.146 201.618 196.171 201.618 197.453C201.618 198.659 201.668 198.734 202.241 198.734H202.864V211.576L202.341 211.274C202.042 211.123 200.971 210.445 199.925 209.766L198.057 208.535H188.044L185.728 210.043C184.458 210.872 183.387 211.551 183.312 211.551C183.237 211.551 183.187 208.661 183.187 205.142V198.734H183.81C184.383 198.734 184.433 198.659 184.433 197.453C184.433 195.97 184.059 196.498 189.364 190.466L193.001 186.345L194.37 187.828C195.143 188.657 197.085 190.868 198.704 192.753ZM261.345 191.773L261.419 194.965H260.149V191.874C260.149 190.165 260.224 188.682 260.324 188.582C260.423 188.481 260.672 188.456 260.896 188.481C261.195 188.557 261.27 189.109 261.345 191.773ZM266.376 191.723C266.376 194.99 266.376 194.99 265.828 194.914C265.28 194.839 265.255 194.739 265.18 191.974C265.106 188.732 265.155 188.431 265.878 188.431C266.351 188.431 266.376 188.582 266.376 191.723ZM181.568 190.617C181.319 191.019 180.971 191.547 180.796 191.823C180.497 192.276 180.597 192.552 181.718 194.261L182.963 196.171L182.34 197.453L181.693 198.709V216.074H174.221V227.81L173.025 227.584C171.979 227.358 171.655 227.408 170.784 227.86C169.514 228.514 169.19 228.514 168.617 227.885C168.243 227.458 167.845 227.383 166.35 227.383C164.781 227.383 164.457 227.307 163.785 226.755L163.038 226.101L162.041 226.629C160.796 227.257 160.572 227.257 159.899 226.629C159.401 226.151 159.376 226.151 157.508 226.729L155.64 227.307L154.52 226.729C153.797 226.352 152.975 226.151 152.129 226.126C150.933 226.126 150.809 226.076 150.809 225.548C150.809 225.171 151.182 224.744 152.079 224.116L153.349 223.261L152.129 222.181C151.356 221.502 150.684 221.125 150.261 221.1C149.688 221.1 149.563 221 149.563 220.472C149.563 220.12 148.99 218.713 148.318 217.331L147.073 214.818H144.457L142.539 217.381C141.444 218.838 140.597 220.221 140.597 220.522C140.597 220.949 140.447 221.1 140.049 221.1C139.75 221.1 139.252 221.352 138.928 221.653L138.355 222.181L137.782 221.653C137.459 221.352 136.911 221.1 136.537 221.1C135.989 221.1 135.864 220.975 135.864 220.472C135.864 220.12 135.292 218.713 134.619 217.331L133.374 214.818H130.734L128.816 217.431C127.77 218.864 126.898 220.271 126.898 220.572C126.898 220.949 126.749 221.1 126.3 221.1C125.976 221.1 125.204 221.402 124.557 221.754L123.411 222.407V212.556H139.6V209.49C139.6 207.806 139.526 206.525 139.426 206.625C139.302 206.726 139.003 207.731 138.729 208.862L138.231 210.922L128.467 210.998C123.087 211.023 118.679 211.023 118.679 210.973C118.679 210.922 120.298 208.183 122.265 204.866L125.852 198.86L132.303 198.734C135.84 198.659 138.928 198.508 139.177 198.382C139.401 198.282 139.6 198.031 139.6 197.83C139.6 197.629 139.85 197.478 140.223 197.478H140.846V192.351L143.187 189.939H181.992L181.568 190.617ZM245.205 192.427V225.096L244.582 225.573L243.96 226.076L239.726 224.216C236.164 222.658 235.242 222.357 234.122 222.357C232.826 222.357 232.727 222.407 231.531 223.613L230.286 224.87H225.479L224.234 226.001C223.536 226.629 222.839 227.131 222.665 227.131C222.49 227.131 221.618 226.905 220.697 226.629L219.078 226.101L217.882 226.729L216.687 227.333L215.566 226.729C214.669 226.277 214.047 226.151 212.527 226.126H210.585V216.074H204.358V198.734L203.686 197.377L203.038 196.02L203.686 194.211L204.358 192.427L203.735 191.346C203.387 190.743 203.113 190.19 203.113 190.115C203.113 190.014 212.054 189.939 223.013 189.939H242.889L245.205 192.427ZM124.158 224.744C124.333 224.945 124.731 225.121 125.055 225.121C125.478 225.121 125.653 225.272 125.653 225.624C125.653 225.975 125.478 226.126 125.105 226.126C124.806 226.126 124.308 226.378 123.984 226.679L123.411 227.207V225.8C123.411 224.342 123.61 224.066 124.158 224.744Z" fill="#1F3335"/>
<path d="M191.033 194.713C190.41 195.92 190.41 196.045 190.41 201.75C190.41 204.916 190.485 207.53 190.61 207.53C190.709 207.505 191.282 207.253 191.905 206.927L193.025 206.324L194.196 206.927C194.844 207.253 195.441 207.53 195.516 207.53C195.591 207.53 195.641 204.916 195.641 201.75C195.641 196.045 195.641 195.92 195.018 194.713L194.395 193.457H191.656L191.033 194.713Z" fill="#1F3335"/>
<path d="M151.929 201.323C151.855 201.473 151.83 205.746 151.855 210.797L151.929 219.969H171.855L171.929 210.47L171.979 200.996H162.017C154.246 200.996 152.004 201.071 151.929 201.323ZM160.074 204.188L160.771 204.866V211.073C160.771 216.954 160.746 217.306 160.248 217.934C159.775 218.537 159.601 218.587 157.708 218.587C155.989 218.587 155.616 218.512 155.117 218.034C154.545 217.507 154.545 217.456 154.545 211.123V204.74L155.167 204.137C155.69 203.584 155.989 203.509 157.558 203.509C159.177 203.509 159.451 203.584 160.074 204.188ZM168.716 204.162L169.489 204.816V211.048C169.489 216.954 169.464 217.306 168.966 217.934C168.492 218.537 168.318 218.587 166.425 218.587C164.582 218.587 164.358 218.537 163.71 217.909L163.013 217.23V204.967L163.735 204.238C164.408 203.559 164.607 203.509 166.201 203.509C167.72 203.509 168.069 203.584 168.716 204.162Z" fill="#1F3335"/>
<path d="M212.876 211.098L212.951 219.969H232.876V202.378L222.839 202.303L212.826 202.252L212.876 211.098ZM220.971 205.369L221.668 205.972L221.818 217.004L221.17 217.808C220.523 218.562 220.448 218.587 218.43 218.587C216.488 218.587 216.313 218.537 215.84 217.934C215.342 217.306 215.317 216.954 215.317 211.676V206.072L216.089 205.419C216.737 204.866 217.085 204.766 218.555 204.766C220 204.766 220.373 204.866 220.971 205.369ZM229.539 205.293L230.261 205.796V211.626C230.261 217.23 230.236 217.431 229.713 218.009C229.24 218.512 228.941 218.587 227.123 218.587C225.205 218.587 225.031 218.537 224.557 217.934C224.059 217.306 224.034 216.954 224.034 211.727V206.173L224.707 205.469C225.305 204.841 225.529 204.766 227.098 204.766C228.443 204.766 228.966 204.891 229.539 205.293Z" fill="#1F3335"/>
<path d="M117.433 132.34C117.433 132.466 117.658 132.767 117.932 133.019C118.405 133.446 118.43 133.798 118.43 142.87V152.243H117.309C116.064 152.243 115.939 152.444 116.686 153.123C117.135 153.525 117.184 153.902 117.184 156.943C117.184 158.777 117.259 160.285 117.384 160.26C117.483 160.26 118.604 159.028 119.874 157.521C122.166 154.832 122.166 154.807 122.166 153.45C122.166 152.319 122.066 151.967 121.543 151.489L120.92 150.911V136.16H121.543C121.892 136.16 122.938 136.663 123.884 137.266C124.831 137.894 125.678 138.321 125.752 138.246C125.827 138.145 125.902 137.617 125.902 137.065C125.902 136.11 125.752 135.884 123.959 134.074L122.041 132.139H119.725C118.48 132.139 117.433 132.24 117.433 132.34Z" fill="#1F3335"/>
<path d="M271.357 154.756C271.357 157.093 271.457 158.526 271.606 158.526C271.756 158.526 271.855 160.386 271.855 163.577C271.855 166.568 271.955 168.804 272.104 169.106C272.329 169.508 272.279 169.583 271.731 169.583C270.61 169.583 270.112 169.156 270.112 168.201C270.112 167.422 270.037 167.321 269.489 167.321C268.891 167.321 268.867 167.372 268.867 169.181C268.867 170.789 268.941 171.091 269.489 171.694C270.062 172.322 270.112 172.549 270.112 174.861V177.374L271.357 178.002C272.603 178.63 272.603 178.63 272.603 179.887C272.603 180.59 272.727 181.143 272.852 181.143C273.001 181.143 273.101 180.364 273.101 179.309C273.101 177.298 272.877 177.751 276.164 173.127L277.584 171.116V165.437C277.584 159.858 277.584 159.782 278.107 159.782C278.804 159.782 278.755 159.632 276.09 155.661C274.745 153.6 273.848 151.992 273.848 151.615C273.848 151.037 273.773 150.987 272.603 150.987H271.357V154.756Z" fill="#1F3335"/>
<path d="M270.112 196.246L270.809 196.171L271.482 196.096L271.556 193.331C271.631 190.039 271.556 189.637 270.735 189.084L270.112 188.682V196.246Z" fill="#1F3335"/>
<defs>
<filter id="filter0_f_68_270" x="0" y="0" width="342.289" height="349.589" filterUnits="userSpaceOnUse" color-interpolation-filters="sRGB">
<feFlood flood-opacity="0" result="BackgroundImageFix"/>
<feBlend mode="normal" in="SourceGraphic" in2="BackgroundImageFix" result="shape"/>
<feGaussianBlur stdDeviation="50" result="effect1_foregroundBlur_68_270"/>
</filter>
</defs>
</svg>
